<svg width="15" height="9" viewBox="0 0 15 9" fill="none" xmlns="http://www.w3.org/2000/svg">
<path d="M7.33008 8.43115C7.11979 8.43115 6.93164 8.35091 6.76562 8.19043L0.34082 1.61621C0.26888 1.54427 0.213542 1.46403 0.174805 1.37549C0.136068 1.28141 0.116699 1.1818 0.116699 1.07666C0.116699 0.93278 0.149902 0.802734 0.216309 0.686523C0.282715 0.570312 0.371257 0.479004 0.481934 0.412598C0.598145 0.346191 0.72819 0.312988 0.87207 0.312988C1.08236 0.312988 1.26221 0.384928 1.41162 0.528809L7.77002 7.02832H6.88184L13.2402 0.528809C13.3952 0.384928 13.575 0.312988 13.7798 0.312988C13.9237 0.312988 14.0509 0.346191 14.1616 0.412598C14.2778 0.479004 14.3691 0.570312 14.4355 0.686523C14.502 0.802734 14.5352 0.93278 14.5352 1.07666C14.5352 1.28141 14.4604 1.4585 14.311 1.60791L7.88623 8.19043C7.81429 8.2679 7.72852 8.32878 7.62891 8.37305C7.53483 8.41178 7.43522 8.43115 7.33008 8.43115Z" fill="#888888"/>
</svg>
