<svg width="12" height="10" viewBox="0 0 12 10" fill="none" xmlns="http://www.w3.org/2000/svg">
<path d="M4.89551 9.93628C4.54858 9.93628 4.2937 9.80176 4.06006 9.51855L1.18555 5.92896C1.00146 5.71655 0.930664 5.51831 0.930664 5.29883C0.930664 4.81738 1.29175 4.46338 1.78735 4.46338C2.08472 4.46338 2.29712 4.56958 2.49536 4.82446L4.86719 7.88306L9.46924 0.562256C9.68164 0.236572 9.88696 0.116211 10.2268 0.116211C10.7224 0.116211 11.0693 0.456055 11.0693 0.9375C11.0693 1.12866 11.0127 1.31982 10.8711 1.53931L5.73096 9.49731C5.53271 9.79468 5.25659 9.93628 4.89551 9.93628Z" fill="white"/>
</svg>
