<svg width="14" height="14" viewBox="0 0 14 14" fill="none" xmlns="http://www.w3.org/2000/svg">
<path d="M0.633301 1.70264C0.539225 1.60856 0.475586 1.49788 0.442383 1.37061C0.414714 1.24333 0.414714 1.11605 0.442383 0.98877C0.475586 0.861491 0.539225 0.750814 0.633301 0.656738C0.727376 0.557129 0.838053 0.49349 0.965332 0.46582C1.09261 0.432617 1.21989 0.432617 1.34717 0.46582C1.47998 0.49349 1.59342 0.557129 1.6875 0.656738L13.3667 12.3359C13.4608 12.43 13.5216 12.5407 13.5493 12.668C13.5825 12.7952 13.5825 12.9225 13.5493 13.0498C13.5216 13.1771 13.4608 13.2878 13.3667 13.3818C13.2726 13.4814 13.1592 13.5451 13.0264 13.5728C12.8991 13.606 12.7718 13.606 12.6445 13.5728C12.5173 13.5396 12.4066 13.4759 12.3125 13.3818L0.633301 1.70264ZM0.633301 12.3359L12.3125 0.656738C12.4066 0.557129 12.5173 0.49349 12.6445 0.46582C12.7718 0.432617 12.8991 0.432617 13.0264 0.46582C13.1536 0.49349 13.2671 0.557129 13.3667 0.656738C13.4608 0.750814 13.5244 0.861491 13.5576 0.98877C13.5908 1.11605 13.5908 1.24333 13.5576 1.37061C13.5244 1.49788 13.4608 1.60856 13.3667 1.70264L1.6875 13.3818C1.59342 13.4759 1.48275 13.5396 1.35547 13.5728C1.22819 13.606 1.10091 13.606 0.973633 13.5728C0.846354 13.5396 0.73291 13.4759 0.633301 13.3818C0.533691 13.2878 0.467285 13.1771 0.434082 13.0498C0.406413 12.9225 0.40918 12.7952 0.442383 12.668C0.475586 12.5407 0.539225 12.43 0.633301 12.3359Z" fill="#666666"/>
</svg>
