<svg width="21" height="19" viewBox="0 0 21 19" fill="none" xmlns="http://www.w3.org/2000/svg">
<path d="M0.853516 6.70508C0.853516 5.80013 0.996745 4.97656 1.2832 4.23438C1.57617 3.48568 1.98307 2.84115 2.50391 2.30078C3.02474 1.75391 3.63021 1.33398 4.32031 1.04102C5.01042 0.748047 5.7526 0.601562 6.54688 0.601562C7.47786 0.601562 8.30143 0.796875 9.01758 1.1875C9.73372 1.57812 10.3066 2.0957 10.7363 2.74023C11.1725 2.0957 11.7487 1.57812 12.4648 1.1875C13.181 0.796875 14.0046 0.601562 14.9355 0.601562C15.7363 0.601562 16.4818 0.748047 17.1719 1.04102C17.862 1.33398 18.4642 1.75391 18.9785 2.30078C19.4993 2.84115 19.903 3.48568 20.1895 4.23438C20.4824 4.97656 20.6289 5.80013 20.6289 6.70508C20.6289 8.09831 20.2611 9.47852 19.5254 10.8457C18.7897 12.2064 17.7513 13.5312 16.4102 14.8203C15.0755 16.1094 13.4967 17.3398 11.6738 18.5117C11.5241 18.6094 11.3613 18.6973 11.1855 18.7754C11.0163 18.86 10.8665 18.9023 10.7363 18.9023C10.6126 18.9023 10.4661 18.86 10.2969 18.7754C10.1276 18.6973 9.96484 18.6094 9.80859 18.5117C7.99219 17.3398 6.41341 16.1094 5.07227 14.8203C3.73112 13.5312 2.69271 12.2064 1.95703 10.8457C1.22135 9.47852 0.853516 8.09831 0.853516 6.70508ZM2.875 6.69531C2.875 7.55469 3.08008 8.42708 3.49023 9.3125C3.90039 10.1979 4.46029 11.0768 5.16992 11.9492C5.88607 12.8151 6.70638 13.6484 7.63086 14.4492C8.55534 15.2435 9.5319 15.9824 10.5605 16.666C10.6517 16.7376 10.7103 16.7734 10.7363 16.7734C10.7689 16.7734 10.8307 16.7376 10.9219 16.666C11.957 15.9824 12.9368 15.2435 13.8613 14.4492C14.7858 13.6484 15.6029 12.8151 16.3125 11.9492C17.0221 11.0768 17.582 10.1979 17.9922 9.3125C18.4023 8.42708 18.6074 7.55469 18.6074 6.69531C18.6074 5.875 18.4414 5.1556 18.1094 4.53711C17.7839 3.91862 17.3346 3.43685 16.7617 3.0918C16.1888 2.74674 15.5378 2.57422 14.8086 2.57422C14.2292 2.57422 13.7279 2.67513 13.3047 2.87695C12.888 3.07878 12.5299 3.33594 12.2305 3.64844C11.931 3.95443 11.6738 4.26042 11.459 4.56641C11.3158 4.75521 11.1921 4.88867 11.0879 4.9668C10.9837 5.04492 10.8665 5.08398 10.7363 5.08398C10.6061 5.08398 10.4889 5.04818 10.3848 4.97656C10.2806 4.89844 10.1602 4.76172 10.0234 4.56641C9.82161 4.25391 9.57096 3.94466 9.27148 3.63867C8.97201 3.33268 8.60742 3.07878 8.17773 2.87695C7.75456 2.67513 7.25326 2.57422 6.67383 2.57422C5.94466 2.57422 5.29362 2.74674 4.7207 3.0918C4.14779 3.43685 3.69531 3.91862 3.36328 4.53711C3.03776 5.1556 2.875 5.875 2.875 6.69531Z" fill="#888888"/>
</svg>
