<svg width="19" height="10" viewBox="0 0 19 10" fill="none" xmlns="http://www.w3.org/2000/svg">
<path d="M1.74707 2.02686C1.27393 2.02686 0.89209 1.62012 0.89209 1.15527C0.89209 0.682129 1.26562 0.283691 1.74707 0.283691H17.2529C17.7344 0.283691 18.1079 0.673828 18.1079 1.15527C18.1079 1.62842 17.7261 2.02686 17.2529 2.02686H1.74707ZM1.74707 5.88672C1.27393 5.88672 0.89209 5.47998 0.89209 5.01514C0.89209 4.54199 1.26562 4.14355 1.74707 4.14355H17.2529C17.7344 4.14355 18.1079 4.53369 18.1079 5.01514C18.1079 5.48828 17.7261 5.88672 17.2529 5.88672H1.74707ZM1.74707 9.75488C1.27393 9.75488 0.89209 9.33984 0.89209 8.875C0.89209 8.40186 1.26562 8.00342 1.74707 8.00342H17.2529C17.7344 8.00342 18.1079 8.39355 18.1079 8.875C18.1079 9.34814 17.7261 9.75488 17.2529 9.75488H1.74707Z" fill="#EBEBF5" fill-opacity="0.3"/>
</svg>
