<svg width="25" height="24" viewBox="0 0 25 24" fill="none" xmlns="http://www.w3.org/2000/svg">
<path d="M12.6367 23.271C12.5146 23.271 12.3682 23.2344 12.1973 23.1611C12.0345 23.096 11.888 23.0228 11.7578 22.9414C9.46289 21.4766 7.47314 19.9425 5.78857 18.3394C4.104 16.728 2.80192 15.076 1.88232 13.3833C0.970866 11.6825 0.515137 9.96533 0.515137 8.23193C0.515137 7.14958 0.686035 6.16081 1.02783 5.26562C1.37777 4.3623 1.86198 3.58105 2.48047 2.92188C3.09896 2.2627 3.81917 1.75407 4.64111 1.396C5.46305 1.03792 6.35417 0.858887 7.31445 0.858887C8.51074 0.858887 9.56055 1.16406 10.4639 1.77441C11.3672 2.38477 12.0915 3.19043 12.6367 4.19141C13.1901 3.18229 13.9185 2.37663 14.8218 1.77441C15.7251 1.16406 16.7708 0.858887 17.959 0.858887C18.9193 0.858887 19.8104 1.03792 20.6323 1.396C21.4624 1.75407 22.1826 2.2627 22.793 2.92188C23.4115 3.58105 23.8916 4.3623 24.2334 5.26562C24.5833 6.16081 24.7583 7.14958 24.7583 8.23193C24.7583 9.96533 24.2985 11.6825 23.3789 13.3833C22.4674 15.076 21.1694 16.728 19.4849 18.3394C17.8084 19.9425 15.8228 21.4766 13.5278 22.9414C13.3976 23.0228 13.2471 23.096 13.0762 23.1611C12.9134 23.2344 12.7669 23.271 12.6367 23.271Z" fill="#FF3030"/>
</svg>
