<svg width="17" height="20" viewBox="0 0 17 20" fill="none" xmlns="http://www.w3.org/2000/svg">
<path d="M8.94849 17.35C10.9818 15.4833 12.4902 13.7875 13.4735 12.2625C14.4568 10.7375 14.9485 9.38333 14.9485 8.2C14.9485 6.38333 14.3693 4.89583 13.211 3.7375C12.0527 2.57917 10.6318 2 8.94849 2C7.26515 2 5.84432 2.57917 4.68599 3.7375C3.52765 4.89583 2.94849 6.38333 2.94849 8.2C2.94849 9.38333 3.44015 10.7375 4.42349 12.2625C5.40682 13.7875 6.91515 15.4833 8.94849 17.35ZM8.94849 19.325C8.71515 19.325 8.48182 19.2833 8.24849 19.2C8.01515 19.1167 7.80682 18.9917 7.62349 18.825C6.54015 17.825 5.58182 16.85 4.74849 15.9C3.91515 14.95 3.21932 14.0292 2.66099 13.1375C2.10265 12.2458 1.67765 11.3875 1.38599 10.5625C1.09432 9.7375 0.948486 8.95 0.948486 8.2C0.948486 5.7 1.75265 3.70833 3.36099 2.225C4.96932 0.741667 6.83182 0 8.94849 0C11.0652 0 12.9277 0.741667 14.536 2.225C16.1443 3.70833 16.9485 5.7 16.9485 8.2C16.9485 8.95 16.8027 9.7375 16.511 10.5625C16.2193 11.3875 15.7943 12.2458 15.236 13.1375C14.6777 14.0292 13.9818 14.95 13.1485 15.9C12.3152 16.85 11.3568 17.825 10.2735 18.825C10.0902 18.9917 9.88182 19.1167 9.64849 19.2C9.41515 19.2833 9.18182 19.325 8.94849 19.325ZM8.94849 10C9.49849 10 9.96932 9.80417 10.361 9.4125C10.7527 9.02083 10.9485 8.55 10.9485 8C10.9485 7.45 10.7527 6.97917 10.361 6.5875C9.96932 6.19583 9.49849 6 8.94849 6C8.39849 6 7.92765 6.19583 7.53599 6.5875C7.14432 6.97917 6.94849 7.45 6.94849 8C6.94849 8.55 7.14432 9.02083 7.53599 9.4125C7.92765 9.80417 8.39849 10 8.94849 10Z" fill="#666666"/>
</svg>
