<svg width="15" height="15" viewBox="0 0 15 15" fill="none" xmlns="http://www.w3.org/2000/svg">
<path d="M6.31689 10.8027C6.92236 10.8027 7.49121 10.688 8.02344 10.4585C8.55566 10.2241 9.02441 9.9043 9.42969 9.49902C9.83496 9.09375 10.1523 8.625 10.3818 8.09277C10.6162 7.56055 10.7334 6.9917 10.7334 6.38623C10.7334 5.78076 10.6162 5.21191 10.3818 4.67969C10.1523 4.14746 9.83496 3.67871 9.42969 3.27344C9.02441 2.86328 8.55566 2.54346 8.02344 2.31396C7.49121 2.08447 6.92236 1.96973 6.31689 1.96973C5.71143 1.96973 5.14258 2.08447 4.61035 2.31396C4.07812 2.54346 3.60693 2.86328 3.19678 3.27344C2.7915 3.67871 2.47412 4.14746 2.24463 4.67969C2.01514 5.21191 1.90039 5.78076 1.90039 6.38623C1.90039 6.9917 2.01514 7.56055 2.24463 8.09277C2.47412 8.625 2.7915 9.09375 3.19678 9.49902C3.60693 9.9043 4.07812 10.2241 4.61035 10.4585C5.14258 10.688 5.71143 10.8027 6.31689 10.8027ZM6.31689 12.0186C5.54053 12.0186 4.81299 11.8721 4.13428 11.5791C3.45557 11.2861 2.85742 10.8809 2.33984 10.3633C1.82227 9.8457 1.41699 9.24756 1.12402 8.56885C0.831055 7.89014 0.68457 7.1626 0.68457 6.38623C0.68457 5.60986 0.831055 4.88232 1.12402 4.20361C1.41699 3.52002 1.82227 2.92188 2.33984 2.40918C2.85742 1.8916 3.45557 1.48633 4.13428 1.19336C4.81787 0.900391 5.54541 0.753906 6.31689 0.753906C7.09326 0.753906 7.8208 0.900391 8.49951 1.19336C9.17822 1.48633 9.77637 1.8916 10.2939 2.40918C10.8115 2.92676 11.2168 3.5249 11.5098 4.20361C11.8027 4.88232 11.9492 5.60986 11.9492 6.38623C11.9492 7.1626 11.8027 7.89014 11.5098 8.56885C11.2168 9.24756 10.8115 9.8457 10.2939 10.3633C9.77637 10.8809 9.17822 11.2861 8.49951 11.5791C7.8208 11.8721 7.09326 12.0186 6.31689 12.0186ZM13.6631 14.6772C13.5508 14.6772 13.4434 14.6577 13.3408 14.6187C13.2383 14.5796 13.1455 14.5186 13.0625 14.4355L9.17334 10.5391L10.3745 9.38184L14.2417 13.2563C14.3247 13.3345 14.3833 13.4248 14.4175 13.5273C14.4565 13.6299 14.4761 13.7349 14.4761 13.8423C14.4761 13.9985 14.4395 14.1377 14.3662 14.2598C14.2979 14.3867 14.2026 14.4868 14.0806 14.5601C13.9585 14.6382 13.8193 14.6772 13.6631 14.6772Z" fill="#888888"/>
</svg>
