<svg width="22" height="20" viewBox="0 0 22 20" fill="none" xmlns="http://www.w3.org/2000/svg">
<path d="M6.24658 19.9438C5.96338 19.9438 5.74365 19.8511 5.5874 19.6655C5.43604 19.48 5.36035 19.231 5.36035 18.9185V16.3989H4.81104C3.92725 16.3989 3.17773 16.2378 2.5625 15.9155C1.94727 15.5933 1.47852 15.1245 1.15625 14.5093C0.838867 13.894 0.680176 13.1494 0.680176 12.2754V4.80469C0.680176 3.93066 0.838867 3.18604 1.15625 2.5708C1.47852 1.95557 1.94727 1.48682 2.5625 1.16455C3.17773 0.837402 3.92725 0.673828 4.81104 0.673828H17.1816C18.0654 0.673828 18.8149 0.837402 19.4302 1.16455C20.0454 1.48682 20.5117 1.95557 20.8291 2.5708C21.1514 3.18604 21.3125 3.93066 21.3125 4.80469V12.2754C21.3125 13.1445 21.1514 13.8867 20.8291 14.502C20.5117 15.1172 20.0454 15.5859 19.4302 15.9082C18.8149 16.2354 18.0654 16.3989 17.1816 16.3989H10.707L7.40381 19.3066C7.16455 19.5166 6.96191 19.6753 6.7959 19.7827C6.62988 19.8901 6.44678 19.9438 6.24658 19.9438ZM6.56885 18.4717L9.65234 15.5054C9.81348 15.3394 9.96729 15.2295 10.1138 15.1758C10.2603 15.127 10.4482 15.1025 10.6777 15.1025H17.1743C17.7993 15.1025 18.3218 14.9927 18.7417 14.7729C19.1616 14.5532 19.479 14.2334 19.6938 13.8135C19.9087 13.3887 20.0161 12.8711 20.0161 12.2607V4.81201C20.0161 4.20166 19.9087 3.68652 19.6938 3.2666C19.479 2.8418 19.1616 2.51953 18.7417 2.2998C18.3218 2.08008 17.7993 1.97021 17.1743 1.97021H4.81836C4.18848 1.97021 3.66357 2.08008 3.24365 2.2998C2.82373 2.51953 2.50635 2.8418 2.2915 3.2666C2.08154 3.68652 1.97656 4.20166 1.97656 4.81201V12.2607C1.97656 12.8711 2.08154 13.3887 2.2915 13.8135C2.50635 14.2334 2.82373 14.5532 3.24365 14.7729C3.66357 14.9927 4.18848 15.1025 4.81836 15.1025H5.96094C6.18066 15.1025 6.33691 15.1489 6.42969 15.2417C6.52246 15.3345 6.56885 15.4932 6.56885 15.7178V18.4717ZM6.02686 12.0044C5.89502 12.0044 5.78271 11.958 5.68994 11.8652C5.59717 11.7725 5.55078 11.6577 5.55078 11.521C5.55078 11.3843 5.59717 11.2695 5.68994 11.1768C5.78271 11.084 5.89502 11.0376 6.02686 11.0376H12.377C12.5088 11.0376 12.6211 11.084 12.7139 11.1768C12.8066 11.2695 12.853 11.3843 12.853 11.521C12.853 11.6577 12.8066 11.7725 12.7139 11.8652C12.6211 11.958 12.5088 12.0044 12.377 12.0044H6.02686ZM6.02686 8.9209C5.89502 8.9209 5.78271 8.87451 5.68994 8.78174C5.59717 8.68896 5.55078 8.57422 5.55078 8.4375C5.55078 8.30566 5.59717 8.19336 5.68994 8.10059C5.78271 8.00293 5.89502 7.9541 6.02686 7.9541H15.7388C15.8706 7.9541 15.9829 8.00293 16.0757 8.10059C16.1685 8.19336 16.2148 8.30566 16.2148 8.4375C16.2148 8.57422 16.1685 8.68896 16.0757 8.78174C15.9829 8.87451 15.8706 8.9209 15.7388 8.9209H6.02686ZM6.02686 5.84473C5.89502 5.84473 5.78271 5.79834 5.68994 5.70557C5.59717 5.61279 5.55078 5.49805 5.55078 5.36133C5.55078 5.22949 5.59717 5.11719 5.68994 5.02441C5.78271 4.93164 5.89502 4.88525 6.02686 4.88525H15.7388C15.8706 4.88525 15.9829 4.93164 16.0757 5.02441C16.1685 5.11719 16.2148 5.22949 16.2148 5.36133C16.2148 5.49805 16.1685 5.61279 16.0757 5.70557C15.9829 5.79834 15.8706 5.84473 15.7388 5.84473H6.02686Z" fill="#52D6FC"/>
</svg>
