<svg width="28" height="18" viewBox="0 0 28 18" fill="none" xmlns="http://www.w3.org/2000/svg">
<path d="M12.8647 17.5449C11.4341 17.5449 10.7188 17.0664 10.7188 16.1094C10.7188 15.6162 10.8384 15.0938 11.0776 14.542C11.3218 13.9951 11.6758 13.4604 12.1396 12.938C12.6035 12.4106 13.1675 11.9346 13.8315 11.5098C14.4956 11.0801 15.2524 10.7383 16.1021 10.4844C16.9565 10.2305 17.8892 10.1035 18.8999 10.1035C19.9155 10.1035 20.8481 10.2305 21.6978 10.4844C22.5522 10.7383 23.3115 11.0801 23.9756 11.5098C24.6396 11.9346 25.2036 12.4106 25.6675 12.938C26.1313 13.4604 26.4829 13.9951 26.7222 14.542C26.9663 15.0938 27.0884 15.6162 27.0884 16.1094C27.0884 17.0664 26.373 17.5449 24.9424 17.5449H12.8647ZM12.5059 16.3218H25.3013C25.4819 16.3218 25.6089 16.2949 25.6821 16.2412C25.7554 16.1924 25.792 16.1021 25.792 15.9702C25.792 15.6284 25.6943 15.25 25.499 14.835C25.3037 14.4248 25.0156 14.0146 24.6348 13.6045C24.2539 13.1895 23.7852 12.811 23.2285 12.4692C22.6719 12.1274 22.0322 11.8516 21.3096 11.6416C20.5869 11.4316 19.7837 11.3267 18.8999 11.3267C18.021 11.3267 17.2202 11.4316 16.4976 11.6416C15.7749 11.8516 15.1353 12.1274 14.5786 12.4692C14.022 12.811 13.5532 13.1895 13.1724 13.6045C12.7915 14.0146 12.5034 14.4248 12.3081 14.835C12.1128 15.25 12.0151 15.6284 12.0151 15.9702C12.0151 16.1021 12.0518 16.1924 12.125 16.2412C12.1982 16.2949 12.3252 16.3218 12.5059 16.3218ZM18.9146 8.75586C18.3579 8.75586 17.8379 8.64355 17.3545 8.41895C16.8711 8.18945 16.4463 7.87451 16.0801 7.47412C15.7139 7.07373 15.4258 6.60986 15.2158 6.08252C15.0107 5.55518 14.9058 4.98877 14.9009 4.3833C14.9009 3.79248 15.0034 3.23828 15.2085 2.7207C15.4185 2.20312 15.7065 1.74902 16.0728 1.3584C16.4438 0.967773 16.8711 0.662598 17.3545 0.442871C17.8428 0.218262 18.3628 0.105957 18.9146 0.105957C19.4663 0.105957 19.9839 0.21582 20.4673 0.435547C20.9556 0.650391 21.3828 0.953125 21.749 1.34375C22.1152 1.73437 22.4009 2.18848 22.606 2.70605C22.8159 3.22363 22.9209 3.77783 22.9209 4.36865C22.9209 4.97412 22.8159 5.54297 22.606 6.0752C22.4009 6.60254 22.1152 7.06885 21.749 7.47412C21.3828 7.87451 20.9556 8.18945 20.4673 8.41895C19.9839 8.64355 19.4663 8.75586 18.9146 8.75586ZM18.9146 7.52539C19.4077 7.52539 19.8594 7.38623 20.2695 7.10791C20.6846 6.82471 21.0142 6.44629 21.2583 5.97266C21.5024 5.49414 21.6245 4.95947 21.6245 4.36865C21.6245 3.79736 21.5024 3.28223 21.2583 2.82324C21.0142 2.36426 20.687 2.00049 20.2769 1.73193C19.8667 1.46338 19.4126 1.3291 18.9146 1.3291C18.4165 1.3291 17.96 1.46582 17.5449 1.73926C17.1348 2.00781 16.8076 2.37402 16.5635 2.83789C16.3193 3.29688 16.1973 3.81201 16.1973 4.3833C16.1973 4.97412 16.3193 5.50635 16.5635 5.97998C16.8125 6.45361 17.1421 6.82959 17.5522 7.10791C17.9624 7.38623 18.4165 7.52539 18.9146 7.52539ZM2.69873 17.5449C2.09814 17.5449 1.64893 17.4204 1.35107 17.1714C1.05322 16.9272 0.904297 16.5513 0.904297 16.0435C0.904297 15.2817 1.08496 14.5469 1.44629 13.8389C1.80762 13.126 2.31055 12.4888 2.95508 11.9272C3.59961 11.3608 4.35156 10.9116 5.21094 10.5796C6.0752 10.2476 7.01025 10.0815 8.01611 10.0815C8.55811 10.0815 9.08545 10.1328 9.59814 10.2354C10.1108 10.333 10.6016 10.4795 11.0703 10.6748C11.5391 10.8701 11.981 11.1118 12.396 11.3999C12.2153 11.5317 12.0493 11.6685 11.8979 11.8101C11.7515 11.9517 11.6123 12.1006 11.4805 12.2568C11.1582 12.042 10.8115 11.8638 10.4404 11.7222C10.0742 11.5757 9.68848 11.4658 9.2832 11.3926C8.87793 11.3193 8.45557 11.2827 8.01611 11.2827C7.2251 11.2827 6.47314 11.4097 5.76025 11.6636C5.05225 11.9175 4.42236 12.2666 3.87061 12.7109C3.32373 13.1504 2.89404 13.6509 2.58154 14.2124C2.26904 14.7739 2.11279 15.3623 2.11279 15.9775C2.11279 16.1143 2.14453 16.2095 2.20801 16.2632C2.27148 16.3218 2.37402 16.3511 2.51562 16.3511H9.67139C9.66162 16.5171 9.68604 16.6782 9.74463 16.8345C9.80811 16.9907 9.89111 17.1299 9.99365 17.252C10.1011 17.3789 10.2207 17.4766 10.3525 17.5449H2.69873ZM8.03076 8.96826C7.38623 8.96826 6.80029 8.79736 6.27295 8.45557C5.75049 8.10889 5.33301 7.64746 5.02051 7.07129C4.70801 6.49023 4.54932 5.8457 4.54443 5.1377C4.54443 4.625 4.63477 4.1416 4.81543 3.6875C4.99609 3.2334 5.24512 2.83301 5.5625 2.48633C5.88477 2.13965 6.25586 1.86865 6.67578 1.67334C7.10059 1.47803 7.55225 1.38037 8.03076 1.38037C8.51416 1.38037 8.96582 1.47803 9.38574 1.67334C9.80566 1.86377 10.1743 2.13232 10.4917 2.479C10.814 2.8208 11.0654 3.21875 11.2461 3.67285C11.4268 4.12207 11.5171 4.60547 11.5171 5.12305C11.5171 5.83105 11.3608 6.47803 11.0483 7.06396C10.7358 7.64502 10.3159 8.10889 9.78857 8.45557C9.26123 8.79736 8.67529 8.96826 8.03076 8.96826ZM8.03076 7.75244C8.4458 7.75244 8.82666 7.6377 9.17334 7.4082C9.52002 7.17383 9.7959 6.85889 10.001 6.46338C10.2109 6.06299 10.3159 5.61621 10.3159 5.12305C10.3159 4.6543 10.2134 4.22949 10.0083 3.84863C9.80322 3.46289 9.52734 3.15771 9.18066 2.93311C8.83398 2.70361 8.45068 2.58887 8.03076 2.58887C7.61572 2.58887 7.23486 2.70361 6.88818 2.93311C6.5415 3.1626 6.26562 3.47021 6.06055 3.85596C5.85547 4.2417 5.75293 4.66895 5.75293 5.1377C5.75293 5.62598 5.85547 6.06787 6.06055 6.46338C6.26562 6.85889 6.5415 7.17383 6.88818 7.4082C7.23486 7.6377 7.61572 7.75244 8.03076 7.75244Z" fill="#FF28D0"/>
</svg>
