<svg width="20" height="18" viewBox="0 0 20 18" fill="none" xmlns="http://www.w3.org/2000/svg">
<path d="M0.727539 6.03125C0.727539 5.21582 0.859375 4.46631 1.12305 3.78271C1.38672 3.09912 1.75537 2.5083 2.229 2.01025C2.70264 1.50732 3.25928 1.11914 3.89893 0.845703C4.53857 0.572266 5.23438 0.435547 5.98633 0.435547C6.5625 0.435547 7.10449 0.52832 7.6123 0.713867C8.12012 0.894531 8.57666 1.14844 8.98193 1.47559C9.38721 1.80273 9.72656 2.18604 10 2.62549C10.2783 2.18604 10.6201 1.80273 11.0254 1.47559C11.4307 1.14355 11.8848 0.887207 12.3877 0.706543C12.8955 0.525879 13.4375 0.435547 14.0137 0.435547C14.7656 0.435547 15.4614 0.572266 16.1011 0.845703C16.7407 1.11914 17.2974 1.50732 17.771 2.01025C18.2495 2.5083 18.6182 3.09912 18.877 3.78271C19.1406 4.46631 19.2725 5.21582 19.2725 6.03125C19.2725 7.02734 19.0674 8.01611 18.6572 8.99756C18.252 9.97412 17.6685 10.936 16.9067 11.8833C16.1499 12.8306 15.2393 13.7559 14.1748 14.6592C13.1152 15.5625 11.9312 16.4365 10.6226 17.2812C10.5298 17.3398 10.4248 17.3936 10.3076 17.4424C10.1953 17.4912 10.0928 17.5156 10 17.5156C9.91211 17.5156 9.80957 17.4912 9.69238 17.4424C9.5752 17.3936 9.47266 17.3398 9.38477 17.2812C8.07129 16.4365 6.88232 15.5625 5.81787 14.6592C4.7583 13.7559 3.84766 12.8306 3.08594 11.8833C2.3291 10.936 1.74561 9.97412 1.33545 8.99756C0.930176 8.01611 0.727539 7.02734 0.727539 6.03125ZM2.02393 6.03125C2.02393 6.91504 2.23389 7.80615 2.65381 8.70459C3.07861 9.59814 3.65723 10.4795 4.38965 11.3486C5.12207 12.2129 5.95459 13.043 6.88721 13.8389C7.82471 14.6348 8.80371 15.3745 9.82422 16.0581C9.91699 16.1216 9.97559 16.1533 10 16.1533C10.0244 16.1533 10.083 16.1216 10.1758 16.0581C11.2012 15.3745 12.1802 14.6348 13.1128 13.8389C14.0503 13.043 14.8828 12.2129 15.6104 11.3486C16.3428 10.4795 16.9189 9.59814 17.3389 8.70459C17.7637 7.80615 17.9761 6.91504 17.9761 6.03125C17.9761 5.17676 17.8052 4.42725 17.4634 3.78271C17.1216 3.13818 16.6528 2.63525 16.0571 2.27393C15.4614 1.9126 14.7852 1.73193 14.0283 1.73193C13.4424 1.73193 12.9321 1.83936 12.4976 2.0542C12.063 2.26904 11.687 2.54004 11.3696 2.86719C11.0571 3.18945 10.791 3.52148 10.5713 3.86328C10.4492 4.02441 10.3491 4.13916 10.271 4.20752C10.1929 4.271 10.1025 4.30273 10 4.30273C9.89746 4.30273 9.80469 4.271 9.72168 4.20752C9.63867 4.14404 9.54346 4.0293 9.43604 3.86328C9.22119 3.5166 8.95752 3.18213 8.64502 2.85986C8.33252 2.53271 7.95654 2.26416 7.51709 2.0542C7.07764 1.83936 6.5625 1.73193 5.97168 1.73193C5.21484 1.73193 4.53857 1.9126 3.94287 2.27393C3.35205 2.63525 2.8833 3.13818 2.53662 3.78271C2.19482 4.42725 2.02393 5.17676 2.02393 6.03125Z" fill="#FF3333"/>
</svg>
