<svg width="10" height="12" viewBox="0 0 10 12" fill="none" xmlns="http://www.w3.org/2000/svg">
<path d="M1.74072 11.751V7.53418H0.0805664V6.53809H1.74072V0.270996H5.53418C6.28678 0.270996 6.93701 0.428711 7.48486 0.744141C8.03825 1.05404 8.46712 1.48291 8.77148 2.03076C9.07585 2.57861 9.22803 3.20117 9.22803 3.89844V3.91504C9.22803 4.61784 9.07308 5.24316 8.76318 5.79102C8.45882 6.33333 8.02995 6.75944 7.47656 7.06934C6.92318 7.37923 6.27018 7.53418 5.51758 7.53418H3.23486V11.751H1.74072ZM0.0805664 10.124V9.12793H6.67969V10.124H0.0805664ZM3.23486 6.20605H5.14404C6.00179 6.20605 6.64095 6.00407 7.06152 5.6001C7.4821 5.19059 7.69238 4.62891 7.69238 3.91504V3.89844C7.69238 3.1901 7.4821 2.63118 7.06152 2.22168C6.64095 1.80664 6.00179 1.59912 5.14404 1.59912H3.23486V6.20605Z" fill="white"/>
</svg>
