<svg width="16" height="20" viewBox="0 0 16 20" fill="none" xmlns="http://www.w3.org/2000/svg">
<path d="M8 19.4165C7.91699 19.4165 7.81934 19.3994 7.70703 19.3652C7.59473 19.3311 7.48242 19.2822 7.37012 19.2188C6.31055 18.6084 5.38525 18.0591 4.59424 17.5708C3.80322 17.0825 3.13184 16.6211 2.58008 16.1865C2.02832 15.752 1.58154 15.3149 1.23975 14.8755C0.897949 14.4312 0.648926 13.9502 0.492676 13.4326C0.341309 12.915 0.265625 12.3242 0.265625 11.6602V4.45312C0.265625 4.11621 0.30957 3.84766 0.397461 3.64746C0.485352 3.44238 0.619629 3.27393 0.800293 3.14209C0.98584 3.01025 1.22021 2.88818 1.50342 2.77588C1.75244 2.67822 2.06982 2.55615 2.45557 2.40967C2.84131 2.2583 3.25635 2.09961 3.70068 1.93359C4.14502 1.7627 4.58936 1.59668 5.03369 1.43555C5.48291 1.26953 5.89795 1.11816 6.27881 0.981445C6.66455 0.844727 6.98438 0.737305 7.23828 0.65918C7.36035 0.625 7.48486 0.593262 7.61182 0.563965C7.74365 0.529785 7.87305 0.512695 8 0.512695C8.13184 0.512695 8.26123 0.527344 8.38818 0.556641C8.51514 0.581055 8.64209 0.615234 8.76904 0.65918C9.01807 0.74707 9.33301 0.859375 9.71387 0.996094C10.0996 1.13281 10.5146 1.28418 10.959 1.4502C11.4082 1.61133 11.855 1.7749 12.2993 1.94092C12.7485 2.10205 13.1636 2.25586 13.5444 2.40234C13.9302 2.54883 14.2476 2.67334 14.4966 2.77588C14.7798 2.89307 15.0117 3.01758 15.1924 3.14941C15.3779 3.27637 15.5146 3.44238 15.6025 3.64746C15.6904 3.84766 15.7344 4.11621 15.7344 4.45312V11.6602C15.7344 12.3242 15.6562 12.9175 15.5 13.4399C15.3486 13.9575 15.1045 14.4385 14.7676 14.8828C14.4307 15.3271 13.9863 15.7666 13.4346 16.2012C12.8828 16.6357 12.209 17.0947 11.4131 17.5781C10.6221 18.0664 9.69434 18.6133 8.62988 19.2188C8.51758 19.2822 8.40527 19.3311 8.29297 19.3652C8.18066 19.3994 8.08301 19.4165 8 19.4165ZM8 17.9736C8.07812 17.9736 8.16113 17.9541 8.24902 17.915C8.33691 17.8809 8.44189 17.8247 8.56396 17.7466C9.43799 17.2046 10.2021 16.7261 10.8564 16.311C11.5107 15.9009 12.0674 15.5176 12.5264 15.1611C12.9854 14.8096 13.3564 14.4531 13.6396 14.0918C13.9229 13.7305 14.1279 13.335 14.2549 12.9053C14.3867 12.4707 14.4526 11.9629 14.4526 11.3818V4.70215C14.4526 4.49219 14.4258 4.33838 14.3721 4.24072C14.3232 4.13818 14.2183 4.05762 14.0571 3.99902C13.7886 3.90137 13.4639 3.78662 13.083 3.65479C12.707 3.51807 12.3042 3.37158 11.8745 3.21533C11.4448 3.0542 11.0151 2.89551 10.5854 2.73926C10.1606 2.57812 9.76025 2.42676 9.38428 2.28516C9.0083 2.14355 8.68848 2.01904 8.4248 1.91162C8.3418 1.88232 8.26367 1.85791 8.19043 1.83838C8.11719 1.81885 8.05371 1.80908 8 1.80908C7.94629 1.80908 7.88281 1.81885 7.80957 1.83838C7.73633 1.85303 7.6582 1.87744 7.5752 1.91162C7.31152 2.01904 6.9917 2.14355 6.61572 2.28516C6.23975 2.42188 5.83691 2.56836 5.40723 2.72461C4.97754 2.87598 4.54785 3.02979 4.11816 3.18604C3.68848 3.34229 3.28564 3.49121 2.90967 3.63281C2.53369 3.76953 2.21387 3.8916 1.9502 3.99902C1.78906 4.0625 1.68164 4.14307 1.62793 4.24072C1.57422 4.33838 1.54736 4.49219 1.54736 4.70215V11.3818C1.54736 11.9629 1.61084 12.4707 1.73779 12.9053C1.86963 13.335 2.07715 13.7329 2.36035 14.0991C2.64355 14.4604 3.01465 14.8169 3.47363 15.1685C3.93262 15.5249 4.48926 15.9082 5.14355 16.3184C5.79785 16.7334 6.56201 17.2095 7.43604 17.7466C7.55811 17.8247 7.66309 17.8809 7.75098 17.915C7.83887 17.9541 7.92188 17.9736 8 17.9736Z" fill="#33FFAA"/>
</svg>
