<svg width="23" height="21" viewBox="0 0 23 21" fill="none" xmlns="http://www.w3.org/2000/svg">
<path d="M9.25879 9.48535C9.07129 9.48535 8.94238 9.45312 8.87207 9.38867C8.80762 9.32422 8.77539 9.19824 8.77539 9.01074V8.35156C8.77539 8.16406 8.80762 8.04102 8.87207 7.98242C8.94238 7.91797 9.07129 7.88574 9.25879 7.88574H9.92676C10.1084 7.88574 10.2314 7.91797 10.2959 7.98242C10.3662 8.04102 10.4014 8.16406 10.4014 8.35156V9.01074C10.4014 9.19824 10.3662 9.32422 10.2959 9.38867C10.2314 9.45312 10.1084 9.48535 9.92676 9.48535H9.25879ZM13.0732 9.48535C12.8857 9.48535 12.7568 9.45312 12.6865 9.38867C12.6221 9.32422 12.5898 9.19824 12.5898 9.01074V8.35156C12.5898 8.16406 12.6221 8.04102 12.6865 7.98242C12.7568 7.91797 12.8857 7.88574 13.0732 7.88574H13.7412C13.9287 7.88574 14.0547 7.91797 14.1191 7.98242C14.1895 8.04102 14.2246 8.16406 14.2246 8.35156V9.01074C14.2246 9.19824 14.1895 9.32422 14.1191 9.38867C14.0547 9.45312 13.9287 9.48535 13.7412 9.48535H13.0732ZM16.8877 9.48535C16.7061 9.48535 16.5801 9.45312 16.5098 9.38867C16.4453 9.32422 16.4131 9.19824 16.4131 9.01074V8.35156C16.4131 8.16406 16.4453 8.04102 16.5098 7.98242C16.5801 7.91797 16.7061 7.88574 16.8877 7.88574H17.5557C17.7432 7.88574 17.8691 7.91797 17.9336 7.98242C18.0039 8.04102 18.0391 8.16406 18.0391 8.35156V9.01074C18.0391 9.19824 18.0039 9.32422 17.9336 9.38867C17.8691 9.45312 17.7432 9.48535 17.5557 9.48535H16.8877ZM5.43555 13.2383C5.25391 13.2383 5.12793 13.209 5.05762 13.1504C4.99316 13.0859 4.96094 12.96 4.96094 12.7725V12.1045C4.96094 11.9229 4.99316 11.7998 5.05762 11.7354C5.12793 11.6709 5.25391 11.6387 5.43555 11.6387H6.10352C6.29102 11.6387 6.41699 11.6709 6.48145 11.7354C6.55176 11.7998 6.58691 11.9229 6.58691 12.1045V12.7725C6.58691 12.96 6.55176 13.0859 6.48145 13.1504C6.41699 13.209 6.29102 13.2383 6.10352 13.2383H5.43555ZM9.25879 13.2383C9.07129 13.2383 8.94238 13.209 8.87207 13.1504C8.80762 13.0859 8.77539 12.96 8.77539 12.7725V12.1045C8.77539 11.9229 8.80762 11.7998 8.87207 11.7354C8.94238 11.6709 9.07129 11.6387 9.25879 11.6387H9.92676C10.1084 11.6387 10.2314 11.6709 10.2959 11.7354C10.3662 11.7998 10.4014 11.9229 10.4014 12.1045V12.7725C10.4014 12.96 10.3662 13.0859 10.2959 13.1504C10.2314 13.209 10.1084 13.2383 9.92676 13.2383H9.25879ZM13.0732 13.2383C12.8857 13.2383 12.7568 13.209 12.6865 13.1504C12.6221 13.0859 12.5898 12.96 12.5898 12.7725V12.1045C12.5898 11.9229 12.6221 11.7998 12.6865 11.7354C12.7568 11.6709 12.8857 11.6387 13.0732 11.6387H13.7412C13.9287 11.6387 14.0547 11.6709 14.1191 11.7354C14.1895 11.7998 14.2246 11.9229 14.2246 12.1045V12.7725C14.2246 12.96 14.1895 13.0859 14.1191 13.1504C14.0547 13.209 13.9287 13.2383 13.7412 13.2383H13.0732ZM16.8877 13.2383C16.7061 13.2383 16.5801 13.209 16.5098 13.1504C16.4453 13.0859 16.4131 12.96 16.4131 12.7725V12.1045C16.4131 11.9229 16.4453 11.7998 16.5098 11.7354C16.5801 11.6709 16.7061 11.6387 16.8877 11.6387H17.5557C17.7432 11.6387 17.8691 11.6709 17.9336 11.7354C18.0039 11.7998 18.0391 11.9229 18.0391 12.1045V12.7725C18.0391 12.96 18.0039 13.0859 17.9336 13.1504C17.8691 13.209 17.7432 13.2383 17.5557 13.2383H16.8877ZM5.43555 17C5.25391 17 5.12793 16.9678 5.05762 16.9033C4.99316 16.8389 4.96094 16.7158 4.96094 16.5342V15.8662C4.96094 15.6846 4.99316 15.5615 5.05762 15.4971C5.12793 15.4326 5.25391 15.4004 5.43555 15.4004H6.10352C6.29102 15.4004 6.41699 15.4326 6.48145 15.4971C6.55176 15.5615 6.58691 15.6846 6.58691 15.8662V16.5342C6.58691 16.7158 6.55176 16.8389 6.48145 16.9033C6.41699 16.9678 6.29102 17 6.10352 17H5.43555ZM9.25879 17C9.07129 17 8.94238 16.9678 8.87207 16.9033C8.80762 16.8389 8.77539 16.7158 8.77539 16.5342V15.8662C8.77539 15.6846 8.80762 15.5615 8.87207 15.4971C8.94238 15.4326 9.07129 15.4004 9.25879 15.4004H9.92676C10.1084 15.4004 10.2314 15.4326 10.2959 15.4971C10.3662 15.5615 10.4014 15.6846 10.4014 15.8662V16.5342C10.4014 16.7158 10.3662 16.8389 10.2959 16.9033C10.2314 16.9678 10.1084 17 9.92676 17H9.25879ZM13.0732 17C12.8857 17 12.7568 16.9678 12.6865 16.9033C12.6221 16.8389 12.5898 16.7158 12.5898 16.5342V15.8662C12.5898 15.6846 12.6221 15.5615 12.6865 15.4971C12.7568 15.4326 12.8857 15.4004 13.0732 15.4004H13.7412C13.9287 15.4004 14.0547 15.4326 14.1191 15.4971C14.1895 15.5615 14.2246 15.6846 14.2246 15.8662V16.5342C14.2246 16.7158 14.1895 16.8389 14.1191 16.9033C14.0547 16.9678 13.9287 17 13.7412 17H13.0732ZM3.66016 20.999C2.5293 20.999 1.67676 20.7148 1.10254 20.1465C0.52832 19.584 0.241211 18.7402 0.241211 17.6152V3.72852C0.241211 2.60352 0.52832 1.75977 1.10254 1.19727C1.67676 0.628906 2.5293 0.344727 3.66016 0.344727H19.3311C20.4678 0.344727 21.3232 0.628906 21.8975 1.19727C22.4717 1.76563 22.7588 2.60938 22.7588 3.72852V17.6152C22.7588 18.7344 22.4717 19.5781 21.8975 20.1465C21.3232 20.7148 20.4678 20.999 19.3311 20.999H3.66016ZM3.53711 19.4434H19.4453C20.002 19.4434 20.4326 19.2939 20.7373 18.9951C21.042 18.7021 21.1943 18.2656 21.1943 17.6855V7.2002C21.1943 6.62012 21.042 6.18359 20.7373 5.89062C20.4326 5.5918 20.002 5.44238 19.4453 5.44238H3.53711C2.97461 5.44238 2.54395 5.5918 2.24512 5.89062C1.94629 6.18359 1.79688 6.62012 1.79688 7.2002V17.6855C1.79688 18.2656 1.94629 18.7021 2.24512 18.9951C2.54395 19.2939 2.97461 19.4434 3.53711 19.4434Z"/>
</svg>
