<svg width="43" height="21" viewBox="0 0 43 21" fill="none" xmlns="http://www.w3.org/2000/svg">
<path d="M14.2314 20.9902C13.417 20.9902 12.8369 20.8701 12.4912 20.6299C12.1455 20.3955 11.9727 20.0293 11.9727 19.5312C11.9727 18.9512 12.1133 18.3389 12.3945 17.6943C12.6816 17.0557 13.0947 16.4346 13.6338 15.8311C14.1729 15.2275 14.8291 14.6826 15.6025 14.1963C16.376 13.7041 17.2549 13.3145 18.2393 13.0273C19.2295 12.7402 20.3105 12.5967 21.4824 12.5967C22.6543 12.5967 23.7324 12.7402 24.7168 13.0273C25.707 13.3145 26.5889 13.7041 27.3623 14.1963C28.1357 14.6826 28.792 15.2275 29.3311 15.8311C29.876 16.4346 30.2891 17.0557 30.5703 17.6943C30.8516 18.3389 30.9922 18.9512 30.9922 19.5312C30.9922 20.0293 30.8193 20.3955 30.4736 20.6299C30.1279 20.8701 29.5479 20.9902 28.7334 20.9902H14.2314ZM21.4912 10.5576C20.6768 10.5576 19.9268 10.3379 19.2412 9.89844C18.5615 9.45898 18.0166 8.86426 17.6064 8.11426C17.1963 7.36426 16.9912 6.52344 16.9912 5.5918C16.9912 4.90625 17.1084 4.26758 17.3428 3.67578C17.583 3.08398 17.9111 2.56836 18.3271 2.12891C18.7432 1.68359 19.2236 1.33789 19.7686 1.0918C20.3135 0.839844 20.8877 0.713867 21.4912 0.713867C22.1006 0.713867 22.6748 0.836914 23.2139 1.08301C23.7588 1.3291 24.2393 1.67188 24.6553 2.11133C25.0713 2.55078 25.3994 3.06641 25.6396 3.6582C25.8799 4.24414 26 4.87988 26 5.56543C26 6.50879 25.792 7.3584 25.376 8.11426C24.9658 8.86426 24.418 9.45898 23.7324 9.89844C23.0527 10.3379 22.3057 10.5576 21.4912 10.5576ZM2.01465 20.9902C1.34668 20.9902 0.863281 20.8584 0.564453 20.5947C0.271484 20.3369 0.125 19.9531 0.125 19.4434C0.125 18.6582 0.31543 17.8584 0.696289 17.0439C1.07715 16.2354 1.62793 15.4941 2.34863 14.8203C3.06934 14.1406 3.93945 13.5928 4.95898 13.1768C5.97852 12.7607 7.12695 12.5527 8.4043 12.5527C9.49414 12.5527 10.458 12.7021 11.2959 13.001C12.1396 13.2939 12.8779 13.6631 13.5107 14.1084C12.8896 14.6006 12.3506 15.1631 11.8936 15.7959C11.4424 16.4229 11.0938 17.0645 10.8477 17.7207C10.6016 18.3828 10.4785 19.001 10.4785 19.5752C10.4844 20.1494 10.6367 20.6211 10.9355 20.9902H2.01465ZM8.41309 10.8125C7.7041 10.8125 7.05078 10.6221 6.45312 10.2412C5.86133 9.86035 5.38672 9.34473 5.0293 8.69434C4.67188 8.03809 4.49316 7.30273 4.49316 6.48828C4.4873 5.69141 4.66602 4.97363 5.0293 4.33496C5.39258 3.69629 5.87012 3.18945 6.46191 2.81445C7.05957 2.43945 7.70996 2.25195 8.41309 2.25195C9.11621 2.25195 9.76367 2.43652 10.3555 2.80566C10.9531 3.1748 11.4307 3.67871 11.7881 4.31738C12.1514 4.9502 12.333 5.66797 12.333 6.4707C12.333 7.29102 12.1543 8.0293 11.7969 8.68555C11.4395 9.33594 10.9619 9.85449 10.3643 10.2412C9.77246 10.6221 9.12207 10.8125 8.41309 10.8125ZM40.9414 20.9902H32.0205C32.3193 20.6211 32.4688 20.1494 32.4688 19.5752C32.4746 19.001 32.3545 18.3828 32.1084 17.7207C31.8623 17.0645 31.5107 16.4229 31.0537 15.7959C30.5967 15.1631 30.0605 14.6006 29.4453 14.1084C30.0781 13.6631 30.8135 13.2939 31.6514 13.001C32.4893 12.7021 33.4531 12.5527 34.543 12.5527C35.8203 12.5527 36.9688 12.7607 37.9883 13.1768C39.0078 13.5928 39.8779 14.1406 40.5986 14.8203C41.3193 15.4941 41.8701 16.2354 42.251 17.0439C42.6377 17.8584 42.8311 18.6582 42.8311 19.4434C42.8311 19.9531 42.6816 20.3369 42.3828 20.5947C42.0898 20.8584 41.6094 20.9902 40.9414 20.9902ZM34.5342 10.8125C33.8252 10.8125 33.1719 10.6221 32.5742 10.2412C31.9824 9.85449 31.5078 9.33594 31.1504 8.68555C30.793 8.0293 30.6143 7.29102 30.6143 6.4707C30.6143 5.66797 30.793 4.9502 31.1504 4.31738C31.5137 3.67871 31.9912 3.1748 32.583 2.80566C33.1807 2.43652 33.8311 2.25195 34.5342 2.25195C35.2373 2.25195 35.8848 2.43945 36.4766 2.81445C37.0742 3.18945 37.5518 3.69629 37.9092 4.33496C38.2725 4.97363 38.4541 5.69141 38.4541 6.48828C38.4541 7.30273 38.2754 8.03809 37.918 8.69434C37.5605 9.34473 37.083 9.86035 36.4854 10.2412C35.8936 10.6221 35.2432 10.8125 34.5342 10.8125Z" fill="none"/>
</svg>
