<svg width="23" height="25" viewBox="0 0 23 25" fill="none" xmlns="http://www.w3.org/2000/svg">
<path d="M2.35938 20.1777C1.9082 20.1777 1.55078 20.0664 1.28711 19.8438C1.0293 19.627 0.900391 19.3369 0.900391 18.9736C0.900391 18.5928 1.00586 18.2266 1.2168 17.875C1.43359 17.5234 1.7002 17.1777 2.0166 16.8379C2.33887 16.498 2.66113 16.1611 2.9834 15.8271C3.2002 15.5928 3.37305 15.3086 3.50195 14.9746C3.63672 14.6406 3.74219 14.2744 3.81836 13.876C3.89453 13.4775 3.95605 13.0703 4.00293 12.6543C4.0498 12.2324 4.09082 11.8193 4.12598 11.415C4.17871 10.0791 4.35156 8.88379 4.64453 7.8291C4.9375 6.77441 5.38281 5.88672 5.98047 5.16602C6.58398 4.44531 7.375 3.91797 8.35352 3.58398C8.54688 2.83398 8.91602 2.20703 9.46094 1.70312C10.0117 1.19922 10.6914 0.947266 11.5 0.947266C12.3027 0.947266 12.9795 1.19922 13.5303 1.70312C14.0811 2.20703 14.4531 2.83398 14.6465 3.58398C15.6191 3.91797 16.4072 4.44531 17.0107 5.16602C17.6143 5.88672 18.0625 6.77441 18.3555 7.8291C18.6484 8.88379 18.8213 10.0791 18.874 11.415C18.9092 11.8193 18.9473 12.2324 18.9883 12.6543C19.0352 13.0703 19.0967 13.4775 19.1729 13.876C19.2549 14.2744 19.3604 14.6406 19.4893 14.9746C19.624 15.3086 19.7998 15.5928 20.0166 15.8271C20.3389 16.1611 20.6582 16.498 20.9746 16.8379C21.2969 17.1777 21.5635 17.5234 21.7744 17.875C21.9912 18.2266 22.0996 18.5928 22.0996 18.9736C22.0996 19.3369 21.9678 19.627 21.7041 19.8438C21.4463 20.0664 21.0889 20.1777 20.6318 20.1777H2.35938ZM11.5 24.4756C10.8789 24.4756 10.3223 24.3408 9.83008 24.0713C9.34375 23.8018 8.94824 23.4473 8.64355 23.0078C8.34473 22.5684 8.16602 22.0908 8.10742 21.5752H14.8926C14.834 22.0908 14.6523 22.5684 14.3477 23.0078C14.0488 23.4473 13.6533 23.8018 13.1611 24.0713C12.6748 24.3408 12.1211 24.4756 11.5 24.4756Z" fill="none"/>
</svg>
