<svg width="23" height="24" viewBox="0 0 23 24" fill="none" xmlns="http://www.w3.org/2000/svg">
<path
d="M11.4912 13.5527C10.7646 13.5469 10.1084 13.3564 9.52246 12.9814C8.94238 12.6064 8.47949 12.0996 8.13379 11.4609C7.79395 10.8164 7.62109 10.0869 7.61523 9.27246C7.61523 8.51074 7.78809 7.81348 8.13379 7.18066C8.47949 6.54785 8.94531 6.04102 9.53125 5.66016C10.1172 5.2793 10.7705 5.08887 11.4912 5.08887C12.2119 5.08887 12.8652 5.2793 13.4512 5.66016C14.0371 6.04102 14.5029 6.54785 14.8486 7.18066C15.1943 7.81348 15.3672 8.51074 15.3672 9.27246C15.3672 10.0869 15.1943 10.8164 14.8486 11.4609C14.5088 12.1055 14.0459 12.6182 13.46 12.999C12.874 13.374 12.2178 13.5586 11.4912 13.5527ZM19.2168 19.0898C18.5312 19.7695 17.7402 20.3496 16.8438 20.8301C15.9473 21.3164 15.0303 21.6885 14.0928 21.9463C13.1611 22.2041 12.2969 22.333 11.5 22.333C10.7031 22.333 9.83301 22.2012 8.88965 21.9375C7.95215 21.6797 7.03223 21.3076 6.12988 20.8213C5.2334 20.3408 4.44531 19.7637 3.76562 19.0898L3.80078 18.9668C3.95312 18.5566 4.24609 18.1465 4.67969 17.7363C5.11328 17.3262 5.66406 16.9512 6.33203 16.6113C7.00586 16.2715 7.77637 15.999 8.64355 15.7939C9.5166 15.583 10.4658 15.4775 11.4912 15.4775C12.5225 15.4775 13.4746 15.583 14.3477 15.7939C15.2207 15.999 15.9912 16.2744 16.6592 16.6201C17.333 16.96 17.8838 17.3379 18.3115 17.7539C18.7451 18.1641 19.0381 18.5742 19.1904 18.9844L19.2168 19.0898ZM11.4912 23.0977C10.2373 23.0977 9.03906 22.9014 7.89648 22.5088C6.75977 22.1221 5.71387 21.5771 4.75879 20.874C3.80371 20.1709 2.97461 19.3418 2.27148 18.3867C1.56836 17.4316 1.02051 16.3828 0.62793 15.2402C0.241211 14.0977 0.0478516 12.9023 0.0478516 11.6543C0.0478516 10.4004 0.241211 9.20508 0.62793 8.06836C1.01465 6.92578 1.55957 5.87695 2.2627 4.92188C2.97168 3.9668 3.80078 3.1377 4.75 2.43457C5.70508 1.72559 6.75098 1.17773 7.8877 0.791016C9.03027 0.398437 10.2285 0.202148 11.4824 0.202148C12.7363 0.202148 13.9346 0.398437 15.0771 0.791016C16.2197 1.17773 17.2686 1.72559 18.2236 2.43457C19.1787 3.1377 20.0078 3.9668 20.7109 4.92188C21.4199 5.87695 21.9678 6.92578 22.3545 8.06836C22.7471 9.20508 22.9434 10.4004 22.9434 11.6543C22.9434 12.9023 22.7471 14.0977 22.3545 15.2402C21.9678 16.3828 21.4199 17.4316 20.7109 18.3867C20.0078 19.3418 19.1787 20.1709 18.2236 20.874C17.2686 21.5771 16.2197 22.1221 15.0771 22.5088C13.9404 22.9014 12.7451 23.0977 11.4912 23.0977ZM11.4912 21.4629C12.5811 21.4629 13.6152 21.2959 14.5938 20.9619C15.5781 20.6338 16.4775 20.1709 17.292 19.5732C18.1123 18.9756 18.8213 18.2695 19.4189 17.4551C20.0225 16.6348 20.4883 15.7354 20.8164 14.7568C21.1445 13.7725 21.3057 12.7383 21.2998 11.6543C21.2998 10.5645 21.1328 9.53027 20.7988 8.55176C20.4707 7.56738 20.0078 6.66797 19.4102 5.85352C18.8125 5.0332 18.1035 4.32422 17.2832 3.72656C16.4688 3.12891 15.5693 2.66602 14.585 2.33789C13.6064 2.00977 12.5723 1.8457 11.4824 1.8457C10.3984 1.8457 9.36426 2.00977 8.37988 2.33789C7.40137 2.66602 6.50488 3.12891 5.69043 3.72656C4.87598 4.32422 4.16992 5.0332 3.57227 5.85352C2.97461 6.66797 2.51172 7.56738 2.18359 8.55176C1.85547 9.53027 1.69141 10.5645 1.69141 11.6543C1.69141 12.7383 1.85547 13.7725 2.18359 14.7568C2.51172 15.7354 2.97461 16.6348 3.57227 17.4551C4.17578 18.2695 4.88477 18.9756 5.69922 19.5732C6.51367 20.1709 7.41016 20.6338 8.38867 20.9619C9.37305 21.2959 10.4072 21.4629 11.4912 21.4629Z" fill="none"/>
</svg>
